<svg xmlns="http://www.w3.org/2000/svg" xmlns:xlink="http://www.w3.org/1999/xlink" width="24" height="24" viewBox="0 0 24 24">
  <defs>
    <clipPath id="clip-path">
      <rect id="Rectangle_168" data-name="Rectangle 168" width="24" height="24" rx="10" transform="translate(1525 40)" fill="#fff"/>
    </clipPath>
  </defs>
  <g id="ft-whatapps" transform="translate(-1525 -40)" clip-path="url(#clip-path)">
    <g id="Icons" transform="translate(1525 40)">
      <g id="Social-Media-Collection">
        <g id="Whatsapp">
          <path id="Fill-232" d="M13.755,12.9a1.53,1.53,0,0,1-1,.707,2.045,2.045,0,0,1-.936-.058,8.66,8.66,0,0,1-.847-.313,6.628,6.628,0,0,1-2.54-2.243,2.889,2.889,0,0,1-.607-1.537,1.665,1.665,0,0,1,.521-1.24.546.546,0,0,1,.4-.186c.1,0,.2,0,.285.005s.214-.035.335.255.421,1.029.458,1.1a.275.275,0,0,1,.012.26A1.023,1.023,0,0,1,9.68,9.9c-.074.086-.156.193-.223.26s-.152.154-.065.3a4.486,4.486,0,0,0,.826,1.029,4.083,4.083,0,0,0,1.2.738c.149.074.236.062.322-.037s.372-.433.471-.583.2-.124.334-.074.867.409,1.016.484.248.111.285.173a1.248,1.248,0,0,1-.087.707M10.847,5.837a4.944,4.944,0,0,0-4.19,7.572l.118.187-.5,1.824,1.871-.49.18.107a4.929,4.929,0,0,0,2.516.689h0a4.944,4.944,0,0,0,0-9.888" transform="translate(1.18 1.167)" fill="#67d449" fill-rule="evenodd"/>
          <g id="Fill-324">
            <path id="Fill-233" d="M12.025,17.9h0a5.935,5.935,0,0,1-2.842-.724L6.026,18l.845-3.082A5.948,5.948,0,1,1,12.025,17.9M12,0A12,12,0,1,0,24,12,12,12,0,0,0,12,0" fill="#67d449" fill-rule="evenodd"/>
          </g>
        </g>
      </g>
    </g>
  </g>
</svg>
