<svg xmlns="http://www.w3.org/2000/svg" xmlns:xlink="http://www.w3.org/1999/xlink" width="14" height="14" viewBox="0 0 14 14">
  <defs>
    <clipPath id="clip-path">
      <rect id="Rectangle_97" data-name="Rectangle 97" width="14" height="14" transform="translate(515 1396)" fill="#923c19" stroke="#707070" stroke-width="1"/>
    </clipPath>
  </defs>
  <g id="home-course-icon" transform="translate(-515 -1396)" clip-path="url(#clip-path)">
    <g id="user_5_" data-name="user(5)" transform="translate(513.6 1394.6)">
      <g id="Lineal_Expanded">
        <g id="Group_10" data-name="Group 10">
          <path id="Path_28" data-name="Path 28" d="M8.4,7.7A3.15,3.15,0,1,0,5.25,4.55,3.154,3.154,0,0,0,8.4,7.7Zm0-4.9A1.75,1.75,0,1,1,6.65,4.55,1.752,1.752,0,0,1,8.4,2.8Z" fill="#923c19"/>
          <path id="Path_29" data-name="Path 29" d="M15.227,14.545a7,7,0,0,0-13.654,0,.7.7,0,1,0,1.365.31,5.6,5.6,0,0,1,10.923,0,.7.7,0,0,0,.682.545.755.755,0,0,0,.156-.017A.7.7,0,0,0,15.227,14.545Z" fill="#923c19"/>
        </g>
      </g>
    </g>
  </g>
</svg>
