<svg xmlns="http://www.w3.org/2000/svg" xmlns:xlink="http://www.w3.org/1999/xlink" width="24" height="24" viewBox="0 0 24 24">
  <defs>
    <clipPath id="clip-path">
      <rect id="Rectangle_116" data-name="Rectangle 116" width="24" height="24" transform="translate(798 1965)" fill="#fff" stroke="#707070" stroke-width="1"/>
    </clipPath>
  </defs>
  <g id="services-icon-2" transform="translate(-798 -1965)" clip-path="url(#clip-path)">
    <g id="feathers" transform="translate(798 1965)">
      <path id="Path_52" data-name="Path 52" d="M14.986,9.183l.486-.649S15.32,3.3,12.494.491L12,0l-.5.491C8.648,3.333,8.529,8.521,8.524,8.534l.486.649L8.5,9.865a29.118,29.118,0,0,0,2.8,10.723v3.4H12.7v-3.4A29.025,29.025,0,0,0,15.5,9.865ZM12.7,16.717V12.7H11.3V16.72A26.778,26.778,0,0,1,9.932,10.3l.837-1.115L9.96,8.1A12.532,12.532,0,0,1,11.3,3.253v3.82H12.7V3.253A12.532,12.532,0,0,1,14.037,8.1l-.808,1.078.837,1.115A26.8,26.8,0,0,1,12.7,16.717Z" fill="#fff"/>
      <path id="Path_53" data-name="Path 53" d="M7.079,9.57l-.569-.636.428-.688S6.319,3.025,3.246.484L2.707.037,2.258.575C-.3,3.62.016,8.847.015,8.851l.541.6-.451.725A29.09,29.09,0,0,0,3.824,20.613L4.119,24l1.4-.122L5.225,20.5A29.509,29.509,0,0,0,7.079,9.57ZM4.54,12.635l-1.4.122.349,4a26.77,26.77,0,0,1-1.917-6.275L2.307,9.3l-.9-1a12.672,12.672,0,0,1,.9-4.947l.346,3.806,1.4-.127L3.7,3.217A12.47,12.47,0,0,1,5.47,7.943L4.758,9.087l.93,1.038a26.8,26.8,0,0,1-.8,6.517Z" fill="#fff"/>
      <path id="Path_54" data-name="Path 54" d="M21.744.575,21.295.037l-.539.448c-3.112,2.584-3.685,7.749-3.691,7.762l.428.688-.569.636A29.053,29.053,0,0,0,18.777,20.5l-.295,3.378,1.4.122.3-3.387A28.979,28.979,0,0,0,23.9,10.18l-.45-.725.541-.6S24.28,3.608,21.744.575Zm.85,7.724-.9,1,.736,1.184a26.788,26.788,0,0,1-1.917,6.272l.349-4-1.4-.122-.35,4.008a26.817,26.817,0,0,1-.8-6.517l.931-1.038-.711-1.144A12.479,12.479,0,0,1,20.3,3.217L19.953,7.03l1.4.127L21.7,3.351a12.665,12.665,0,0,1,.9,4.947Z" fill="#fff"/>
    </g>
  </g>
</svg>
