<svg xmlns="http://www.w3.org/2000/svg" xmlns:xlink="http://www.w3.org/1999/xlink" width="24" height="24" viewBox="0 0 24 24">
  <defs>
    <clipPath id="clip-path">
      <rect id="Rectangle_115" data-name="Rectangle 115" width="24" height="24" transform="translate(398 1965)" fill="#fff" stroke="#707070" stroke-width="1"/>
    </clipPath>
  </defs>
  <g id="services-icon" transform="translate(-398 -1965)" clip-path="url(#clip-path)">
    <g id="balloons" transform="translate(398 1965)">
      <path id="Path_51" data-name="Path 51" d="M20.438,16.922H17.625a.7.7,0,0,1-.7-.7v-.7h1.406V13.688a7,7,0,0,0,4.219-6.61c0-3.9-2.839-7.078-6.328-7.078a5.987,5.987,0,0,0-4.228,1.8A5.942,5.942,0,0,0,7.781,0C4.292,0,1.453,3.175,1.453,7.078a7,7,0,0,0,4.219,6.61v1.828H7.078V24H8.484V15.516H9.891V13.688A6.22,6.22,0,0,0,12,12.3a6.21,6.21,0,0,0,2.109,1.386v1.828h1.406v.7a2.112,2.112,0,0,0,2.109,2.109h2.813a.7.7,0,0,1,0,1.406H14.813A2.112,2.112,0,0,0,12.7,21.844V24h1.406V21.844a.7.7,0,0,1,.7-.7h5.625a2.109,2.109,0,0,0,0-4.219ZM8.355,12.69c.1.608.087.611.13.767v.653H7.078v-.653c.043-.156.03-.155.13-.767A5.469,5.469,0,0,1,2.859,7.078c0-3.128,2.208-5.672,4.922-5.672S12.7,3.951,12.7,7.078A5.489,5.489,0,0,1,8.355,12.69Zm7.161,1.42v-.653c.043-.156.03-.155.13-.767a5.276,5.276,0,0,1-2.75-1.484,7.51,7.51,0,0,0,1.214-4.128A7.612,7.612,0,0,0,12.884,2.9a4.61,4.61,0,0,1,3.335-1.491c2.714,0,4.922,2.544,4.922,5.672a5.489,5.489,0,0,1-4.349,5.611c.1.608.087.611.13.767v.653Z" fill="#fff"/>
    </g>
  </g>
</svg>
